Coordinates
version=1
nRows=14
nColumns=33
inDegrees=yes

Units are S.I. units (second, meters, Newtons, ...)
Angles are in degrees.

endheader
time	ground_thorax_rot_x	ground_thorax_rot_y	ground_thorax_rot_z	ground_thorax_tx	ground_thorax_ty	ground_thorax_tz	clav_prot_r	clav_elev_r	scapula_abduction_r	scapula_elevation_r	scapula_upward_rot_r	scapula_winging_r	shoulder_elv_r	plane_of_elev_r	axial_rot_r	elbow_flexion_r	pro_sup_r	wrist_flex_r	wrist_dev_r	clav_prot_l	clav_elev_l	scapula_abduction_l	scapula_elevation_l	scapula_upward_rot_l	scapula_winging_l	shoulder_elv_l	plane_of_elev_l	axial_rot_l	elbow_flexion_l	pro_sup_l	wrist_flex_l	wrist_dev_l
      6.67000000	     39.19188203	     11.47067399	     12.81798845	   -160.69457313	    809.84558332	      4.25624082	     16.14586716	     37.70138381	     40.42395956	     45.00000000	    -43.40022161	  -2963.08767674	  -4066.24287582	    142.23216711	    179.99999979	   1451.94856354	     46.61565911	     22.27811795	     10.95535874	      7.22038663	    -45.00000000	    -38.72407942	     45.00000000	    -43.78089584	    811.84045750	  -2971.33749800	    133.80333342	   -179.99999979	    730.20828298	   -333.98577925	      8.71490170	    -21.19960709
      6.68000000	     39.22513341	     11.41113146	     12.74266566	   -162.72120907	    811.20447016	      4.18147591	     16.05346769	     37.47268146	     40.48947179	     45.00000000	    -43.62734129	  -2963.28309406	  -4066.21706694	    142.24061341	    179.99999979	   1452.01656582	     46.54701983	     22.28705175	     10.81120747	      7.26627401	    -45.00000000	    -38.67666850	     45.00000000	    -43.93439922	    812.08113588	  -2971.19798914	    133.75707929	   -179.99999979	    730.25924735	   -334.39748604	      8.71044038	    -21.23022576
      6.69000000	     39.24984010	     11.28706180	     12.66190184	   -164.73066708	    812.57230421	      4.11251228	     15.98722649	     37.46662576	     40.41638790	     45.00000000	    -43.81470212	  -2963.38207237	  -4066.02881952	    142.17275304	    179.99999979	   1452.17952051	     46.48315314	     22.32474001	     10.73671788	      7.32389077	    -45.00000000	    -38.69585990	     45.00000000	    -44.01269863	    812.30737326	  -2971.09457890	    133.82816050	   -179.99999979	    730.31521628	   -334.73442656	      8.69682407	    -21.25451020
      6.70000000	     39.28553529	     11.20310445	     12.46926061	   -166.72391758	    813.94778245	      4.05005348	     15.93107512	     37.44990231	     40.37234497	     45.00000000	    -44.04292128	  -2963.47288168	  -4065.85777766	    142.12286573	    179.99999979	   1452.18834466	     46.44724625	     22.32431972	     10.66863206	      7.36061481	    -45.00000000	    -38.72233315	     45.00000000	    -44.10207493	    812.46498453	  -2970.97515182	    133.81055606	   -179.99999979	    730.34172613	   -335.02426596	      8.69383124	    -21.27932033
      6.71000000	     39.29491162	     11.23971766	     12.54105774	   -168.70585361	    815.33163623	      3.99486040	     15.82556227	     37.16392789	     40.41572089	     45.00000000	    -44.31253342	  -2963.61207538	  -4065.83705847	    142.22152848	    179.99999979	   1452.23253660	     46.35235217	     22.35359470	     10.51898735	      7.45676295	    -45.00000000	    -38.56224797	     45.00000000	    -44.64617302	    812.67434896	  -2970.73998924	    133.71793360	   -179.99999979	    730.36854744	   -335.33816615	      8.62288295	    -21.31190159
      6.72000000	     39.33324506	     11.13647412	     12.41456687	   -170.67681582	    816.72072173	      3.94799115	     15.80612126	     37.23501280	     40.30833510	     45.00000000	    -44.60729759	  -2963.69706630	  -4065.57407088	    142.10409038	    179.99999979	   1452.35309583	     46.30156805	     22.36705422	     10.47310702	      7.53400288	    -45.00000000	    -38.60569448	     45.00000000	    -44.73809567	    812.86491885	  -2970.66550333	    133.78145162	   -179.99999979	    730.45274713	   -335.55767077	      8.63103006	    -21.34873424
      6.73000000	     39.37396826	     11.03603394	     12.27671958	   -172.63689146	    818.11172359	      3.91076755	     15.73549153	     37.16013629	     40.26293815	     45.00000000	    -44.74169956	  -2963.80430092	  -4065.45457987	    142.08050450	    179.99999979	   1452.36608906	     46.25065867	     22.37221374	     10.39307538	      7.59033141	    -45.00000000	    -38.57699880	     45.00000000	    -44.95951167	    813.05020838	  -2970.52194239	    133.74076098	   -179.99999979	    730.48294311	   -335.73332528	      8.60092233	    -21.38486581
      6.74000000	     39.41698429	     10.89559535	     12.09875292	   -174.58804621	    819.50217211	      3.88449262	     15.63034504	     37.13548983	     40.20763823	     45.00000000	    -44.72923065	  -2963.89659615	  -4065.39524639	    142.13613806	    179.99999979	   1452.43191030	     46.19750600	     22.41216446	     10.31751097	      7.61768534	    -45.00000000	    -38.56338261	     45.00000000	    -45.00000000	    813.23067163	  -2970.43111950	    133.76221286	   -179.99999979	    730.54057010	   -335.86611463	      8.55599039	    -21.43903258
      6.75000000	     39.46664800	     10.72642284	     11.82728738	   -176.52898469	    820.88688183	      3.87054688	     15.54080928	     37.17779566	     40.12586119	     45.00000000	    -44.73062399	  -2963.95712434	  -4065.27684731	    142.15082396	    179.99999979	   1452.47046626	     46.15932518	     22.45224120	     10.27875044	      7.64559268	    -45.00000000	    -38.62594024	     45.00000000	    -45.00000000	    813.37438501	  -2970.33797267	    133.79509469	   -179.99999979	    730.59167532	   -335.91835060	      8.52961465	    -21.50030674
      6.76000000	     39.51237726	     10.53296693	     11.61720153	   -178.45899602	    822.26102849	      3.86983295	     15.44852776	     37.17766074	     40.04483708	     45.00000000	    -44.80108263	  -2964.04284656	  -4065.13984944	    142.10440317	    179.99999979	   1452.55129901	     46.12525082	     22.49792900	     10.24615420	      7.68976442	    -45.00000000	    -38.71174067	     45.00000000	    -45.00000000	    813.56554501	  -2970.26558400	    133.85508724	   -179.99999979	    730.63447945	   -335.91458390	      8.50167465	    -21.56078660
      6.77000000	     39.57046569	     10.34026678	     11.38010871	   -180.38073519	    823.62175322	      3.88292920	     15.36079623	     37.15319179	     39.97162860	     45.00000000	    -44.77889243	  -2964.12875979	  -4065.06070962	    142.11828857	    179.99999979	   1452.62182001	     46.07300055	     22.53485729	     10.17675351	      7.72148383	    -45.00000000	    -38.69635873	     45.00000000	    -45.00000000	    813.73947168	  -2970.21477777	    133.87805366	   -179.99999979	    730.69398810	   -335.85737591	      8.45265134	    -21.63454558
      6.78000000	     39.62456528	     10.15969474	     11.11592010	   -182.29172072	    824.96284416	      3.90966699	     15.26569443	     37.19093299	     39.87974029	     45.00000000	    -44.70579570	  -2964.20022630	  -4064.97971273	    142.15861799	    179.99999979	   1452.68089690	     46.01978570	     22.57987970	     10.12818647	      7.75103746	    -45.00000000	    -38.72957494	     45.00000000	    -45.00000000	    813.89303947	  -2970.15770144	    133.92511437	   -179.99999979	    730.76889972	   -335.74943754	      8.40403242	    -21.71730364
      6.79000000	     39.66253293	      9.98469605	     10.90824396	   -184.19358438	    826.28146695	      3.94934701	     15.19334994	     37.12146157	     39.81521298	     45.00000000	    -44.76910665	  -2964.28462219	  -4064.87857805	    142.13776773	    179.99999979	   1452.70235635	     45.95934728	     22.58852359	     10.03635833	      7.81939304	    -45.00000000	    -38.73425598	     45.00000000	    -45.00000000	    814.09084257	  -2970.08937103	    133.94333567	   -179.99999979	    730.79448682	   -335.59462365	      8.34425187	    -21.78973244
      6.80000000	     39.69752517	      9.82399596	     10.70003715	   -186.08320900	    827.57238655	      4.00027712	     15.13617572	     37.01718467	     39.83590699	     45.00000000	    -45.00000000	  -2964.37216129	  -4064.75372692	    142.12579146	    179.99999979	   1452.71814256	     45.87799213	     22.57503714	      9.92681844	      7.89311264	    -45.00000000	    -38.80073263	     45.00000000	    -45.00000000	    814.27218798	  -2970.06825187	    134.00498953	   -179.99999979	    730.80681330	   -335.34839272	      8.29861088	    -21.87069053
